<svg width="22" height="26" viewBox="0 0 22 26" fill="none" xmlns="http://www.w3.org/2000/svg">
<path d="M5.66853 25.5133C5.15592 25.1723 4.7016 24.7509 4.32303 24.2653C3.90661 23.7641 3.52079 23.2383 3.16766 22.6907C2.33897 21.4767 1.6891 20.1498 1.23797 18.7509C0.696031 17.1259 0.433594 15.5683 0.433594 14.0449C0.433594 12.3435 0.801656 10.8583 1.52153 9.61025C2.05516 8.6348 2.83974 7.81965 3.79409 7.24913C4.71897 6.67467 5.78166 6.36029 6.87022 6.33913C7.25128 6.33913 7.66159 6.39438 8.09709 6.5C8.40991 6.58857 8.79097 6.72832 9.25653 6.90219C9.84884 7.1305 10.1747 7.27025 10.2852 7.30438C10.6321 7.43113 10.9238 7.48638 11.1529 7.48638C11.3268 7.48638 11.5722 7.43113 11.8508 7.34663C12.0077 7.29138 12.3034 7.19388 12.7267 7.01269C13.146 6.85994 13.4758 6.72913 13.7383 6.63163C14.1405 6.513 14.5297 6.40332 14.8766 6.34807C15.2879 6.28322 15.7053 6.26605 16.1205 6.29688C16.8401 6.34391 17.5488 6.49639 18.2241 6.74944C19.3283 7.19388 20.2212 7.88775 20.8858 8.87413C20.6049 9.04727 20.3413 9.24698 20.0985 9.4705C19.5701 9.93897 19.12 10.4889 18.7652 11.0996C18.3015 11.9341 18.0611 12.8741 18.0673 13.8288C18.0843 15.0012 18.385 16.0339 18.9773 16.9268C19.4127 17.5886 19.9787 18.1545 20.6405 18.59C20.9793 18.8183 21.271 18.9751 21.5505 19.0808C21.4197 19.487 21.2799 19.8803 21.115 20.2703C20.7409 21.1448 20.2875 21.9833 19.7605 22.7752C19.2909 23.4569 18.9228 23.9647 18.6433 24.3027C18.2078 24.8186 17.7886 25.2127 17.3653 25.4873C16.8997 25.7961 16.3497 25.961 15.7907 25.961C15.4121 25.9755 15.0336 25.9297 14.6694 25.8253C14.3566 25.7197 14.047 25.6051 13.7423 25.4743C13.4256 25.3288 13.099 25.2058 12.7649 25.1063C11.9392 24.8942 11.0734 24.8928 10.247 25.1022C9.90815 25.1997 9.58234 25.3134 9.26059 25.4532C8.80803 25.6433 8.50741 25.7709 8.33353 25.8253C7.98659 25.9269 7.62666 25.9903 7.26266 26.0114C6.69959 26.0114 6.17472 25.8505 5.65472 25.5247L5.66853 25.5133ZM13.0948 5.51363C12.3587 5.88169 11.6558 6.0385 10.9579 5.98732C10.8482 5.2845 10.9579 4.56544 11.2496 3.77813C11.4979 3.11112 11.8648 2.49453 12.3327 1.95813C12.8267 1.39346 13.4261 0.930622 14.0974 0.595566C14.8124 0.227504 15.4941 0.0284413 16.1457 -0.000808716C16.2302 0.735316 16.1457 1.45925 15.8752 2.24169C15.6248 2.93336 15.2585 3.57738 14.7921 4.14619C14.316 4.71163 13.7318 5.17627 13.0737 5.51282L13.0948 5.51363Z" fill="#121212"/>
</svg>
