<svg width="90" height="90" viewBox="0 0 90 90" fill="none" xmlns="http://www.w3.org/2000/svg">
<path d="M23.0625 64.125H23.4844H28.4063L27.1406 47.8125C27.1406 47.3906 27.2813 47.1094 27.4219 46.8281C27.7031 46.5469 27.9844 46.4063 28.4063 46.4063H61.5937C62.0156 46.4063 62.2969 46.5469 62.5781 46.8281C62.8594 47.1094 63 47.3906 62.8594 47.8125L61.5937 64.125H66.5156H66.9375H69.4688H69.8906V53.7188V51.1875V45.9844C69.8906 40.9219 65.8125 36.7031 60.6094 36.7031H54.8438C54.4219 36.7031 54 36.5625 53.4375 36.2812C52.875 36 52.4531 35.5781 52.1719 35.0156C52.0312 34.7344 51.8906 34.4531 51.8906 34.1719C52.3125 33.8906 52.7344 33.6094 53.0156 33.1875C55.125 31.0781 56.3906 28.125 56.3906 25.0312V18.2812C57.7969 18 59.0625 17.2969 60.1875 16.3125C61.4531 15.0469 62.1562 13.3594 62.2969 11.5312C62.4375 9.5625 61.7344 7.73438 60.3281 6.32813C58.9219 4.78125 56.8125 3.9375 54.7031 3.9375H41.9062C41.7656 3.9375 41.625 3.9375 41.4844 3.9375C41.2031 3.9375 41.0625 3.9375 40.7813 4.07813H40.3594C34.4531 5.0625 29.8125 10.4062 29.3906 16.7344C29.1094 22.0781 31.3594 24.8906 33.4687 26.2969C33.8906 29.3906 35.4375 32.2031 37.9688 34.0313C37.8281 34.3125 37.8281 34.5937 37.6875 34.875C37.4062 35.4375 36.9844 35.8594 36.5625 36.1406V36.5625C36.1406 36.7031 35.7188 36.8438 35.2969 36.8438H29.5313C24.4688 36.8438 20.25 40.9219 20.25 46.125V51.3281V53.8594V64.2656H20.6719H23.0625V64.125ZM45 41.625L39.375 38.5313C39.7969 37.9688 40.5 37.4063 40.7813 36.8438C40.9219 36.5625 40.9219 36.2813 41.0625 36.1406C42.3281 36.7031 43.7344 36.9844 45 36.9844C46.4063 36.9844 47.6719 36.7031 48.9375 36.1406C49.0781 36.4219 49.0781 36.5625 49.2188 36.8438C49.3594 37.4063 50.2031 37.9688 50.625 38.5313L45 41.625ZM36.8438 25.7344C36.8438 25.5937 36.8438 25.5938 36.8438 25.5938V18.7031H53.1562V25.3125C53.1562 27.5625 52.3125 29.5313 50.7656 31.0781C50.3437 31.5 49.7813 31.9219 49.2188 32.2031C47.8125 33.1875 46.4063 33.4688 45 33.4688C43.5938 33.4688 42.1875 33.0469 40.9219 32.3438L40.7813 32.2031C40.7813 32.2031 40.7813 32.2031 40.6406 32.2031C38.3906 30.7969 36.9844 28.4062 36.8438 25.7344Z" fill="#0171B9"/>
<path d="M59.0625 64.125L60.1875 49.0781H29.8125L30.9375 64.125H59.0625ZM52.4531 54.2812L51.8906 58.9219H38.1094L37.5469 54.2812H52.4531Z" fill="#0171B9"/>
<path d="M88.5938 51.3281H72.4219V64.2656H75.0938C75.7969 64.2656 76.3594 64.8281 76.3594 65.5312C76.3594 66.2344 75.7969 66.7969 75.0938 66.7969H69.3281H67.2187H22.9219H20.8125H15.0469C14.3437 66.7969 13.7813 66.2344 13.7813 65.5312C13.7813 64.8281 14.3437 64.2656 15.0469 64.2656H17.7188V51.3281H1.40625C0.703125 51.3281 0 51.8906 0 52.5938V84.375C0 85.0781 0.5625 85.7812 1.40625 85.7812H88.5938C89.2969 85.7812 90 85.2187 90 84.5156V52.5938C90 51.8906 89.4375 51.3281 88.5938 51.3281ZM29.3906 80.2969L26.5781 78.75L23.7656 80.2969L24.3281 77.2031L22.0781 74.9531L25.1719 74.5312L26.5781 71.7188L27.9844 74.5312L31.0781 74.9531L28.8281 77.2031L29.3906 80.2969ZM47.8125 80.2969L45 78.75L42.1875 80.2969L42.75 77.2031L40.5 74.9531L43.5938 74.5312L45 71.7188L46.4062 74.5312L49.5 74.9531L47.25 77.2031L47.8125 80.2969ZM66.375 80.2969L63.5625 78.75L60.75 80.2969L61.3125 77.2031L59.0625 74.9531L62.1563 74.5312L63.5625 71.7188L64.9688 74.5312L68.0625 74.9531L65.8125 77.2031L66.375 80.2969Z" fill="#2C3A45"/>
</svg>
