<svg width="52" height="52" viewBox="0 0 52 52" fill="none" xmlns="http://www.w3.org/2000/svg">
<g filter="url(#filter0_d_1_112)">
<g filter="url(#filter1_dd_1_112)">
<path d="M11.6456 15.929C12.6604 11.0193 15.7829 8.28475 20.6535 7.45867C24.254 6.84813 27.8559 6.8404 31.4504 7.47581C36.4653 8.36227 39.4802 11.2563 40.4406 16.2402C41.1826 20.092 41.1942 23.9848 40.4289 27.833C39.4022 32.7087 36.1992 35.7183 31.3465 36.5414C27.746 37.1519 24.1442 37.1596 20.5497 36.5242C15.5347 35.6377 12.5065 32.5992 11.5461 27.6153C10.7663 23.7382 10.8413 19.8207 11.6456 15.929V15.929Z" fill="black"/>
</g>
<path d="M11.6456 15.929C12.6604 11.0193 15.7829 8.28475 20.6535 7.45867C24.254 6.84813 27.8559 6.8404 31.4504 7.47581C36.4653 8.36227 39.4802 11.2563 40.4406 16.2402C41.1826 20.092 41.1942 23.9848 40.4289 27.833C39.4022 32.7087 36.1992 35.7183 31.3465 36.5414C27.746 37.1519 24.1442 37.1596 20.5497 36.5242C15.5347 35.6377 12.5065 32.5992 11.5461 27.6153C10.7663 23.7382 10.8413 19.8207 11.6456 15.929V15.929Z" fill="#618FFA"/>
<path fill-rule="evenodd" clip-rule="evenodd" d="M26.0908 24.51C24.62 24.51 23.4276 23.3134 23.4276 21.8376C23.4276 20.3615 24.62 19.1651 26.0908 19.1651C27.5616 19.1651 28.754 20.3615 28.754 21.8376C28.754 23.3134 27.5616 24.51 26.0908 24.51ZM26.0908 17.9213C28.2461 17.9213 29.9935 19.6747 29.9935 21.8376C29.9935 24.0004 28.2461 25.7539 26.0908 25.7539C23.9354 25.7539 22.1881 24.0004 22.1881 21.8376C22.1881 19.6747 23.9354 17.9213 26.0908 17.9213ZM19.7594 23.0017C19.7594 23.0851 19.7421 23.1676 19.7087 23.244C19.6752 23.3204 19.6263 23.389 19.5651 23.4454L17.8447 25.0314L16.9402 24.0392L18.2395 22.8467C18.2962 22.7947 18.3414 22.7314 18.3724 22.6609C18.4034 22.5903 18.4194 22.5141 18.4194 22.437V21.4043C18.4194 21.3233 18.4018 21.2433 18.3677 21.1698C18.3336 21.0964 18.284 21.0313 18.2222 20.9792L16.7194 19.7113C16.5323 19.5534 16.4087 19.3327 16.3716 19.0901C16.3345 18.8476 16.3865 18.5998 16.5179 18.3929L18.5711 15.1581C18.851 14.7172 19.4195 14.5627 19.8828 14.8017L21.3216 15.5436C21.3911 15.5794 21.4674 15.6001 21.5454 15.6042C21.6234 15.6083 21.7015 15.5958 21.7743 15.5675L22.7039 15.2065C22.8007 15.1689 22.885 15.1047 22.9472 15.0213C23.0094 14.9379 23.047 14.8386 23.0556 14.7348L23.1914 13.1047C23.235 12.5803 23.672 12.1769 24.1965 12.1769L27.9742 12.1772C28.4952 12.1772 28.9304 12.5752 28.9785 13.0958L29.1278 14.7118C29.135 14.7899 29.1586 14.8656 29.1971 14.9339C29.2355 15.0022 29.2879 15.0615 29.3509 15.108L30.1141 15.6715C30.1878 15.7259 30.2738 15.7611 30.3644 15.774C30.455 15.7869 30.5474 15.7771 30.6332 15.7453L32.4479 15.0754L32.9106 16.3373L30.4412 17.249C30.3474 17.2836 30.2464 17.2942 30.1474 17.2798C30.0485 17.2653 29.9547 17.2263 29.8745 17.1663L28.1394 15.8656C28.0572 15.8042 27.9888 15.7263 27.9385 15.6367C27.8882 15.5471 27.8572 15.448 27.8475 15.3456L27.6738 13.5216H24.5147L24.3256 15.5936C24.3117 15.7457 24.2548 15.8906 24.1616 16.0113C24.0684 16.132 23.9427 16.2235 23.7994 16.2749L21.781 16.9996C21.6785 17.0364 21.5695 17.0518 21.4609 17.0448C21.3522 17.0378 21.2461 17.0086 21.1491 16.9589L19.54 16.1348L17.8428 18.8086L19.5054 20.2481C19.5851 20.3172 19.649 20.4026 19.6929 20.4987C19.7367 20.5948 19.7594 20.6993 19.7594 20.8049V23.0017ZM35.2036 24.0077C35.6205 24.3212 35.7308 24.9017 35.4582 25.3472L33.4815 28.5778C33.2071 29.0262 32.6359 29.1888 32.1676 28.9516L30.7124 28.2148C30.6197 28.1678 30.5157 28.148 30.4123 28.1575C30.309 28.1671 30.2103 28.2056 30.1277 28.2687L29.3347 28.8746C29.2725 28.9221 29.221 28.9823 29.1837 29.0512C29.1464 29.12 29.124 29.1961 29.1181 29.2743L28.9953 30.8928C28.9557 31.4141 28.5269 31.8194 28.0061 31.8279L24.1847 31.891C23.9402 31.895 23.7026 31.8097 23.5161 31.6511C23.3295 31.4925 23.2068 31.2713 23.1706 31.0286L22.8803 29.0801C22.8684 29 22.8391 28.9235 22.7946 28.8559C22.7501 28.7883 22.6914 28.7313 22.6226 28.689L21.7457 28.1486C21.6802 28.1083 21.6071 28.0821 21.531 28.0716C21.4549 28.0612 21.3774 28.0667 21.3035 28.088L19.6111 28.575L19.2418 27.2824L21.4889 26.6411C21.5688 26.6183 21.6527 26.6124 21.735 26.6238C21.8174 26.6351 21.8965 26.6636 21.9674 26.7072L23.8329 27.8569C23.9226 27.9122 23.9994 27.9863 24.058 28.074C24.1167 28.1618 24.1558 28.2612 24.1727 28.3655L24.5251 30.5405L27.6839 30.4885L27.8261 28.6813C27.8347 28.5723 27.8653 28.4663 27.9163 28.3696C27.9672 28.273 28.0373 28.1879 28.1222 28.1194L29.7938 26.7728C29.9125 26.6771 30.0559 26.6176 30.2072 26.601C30.3585 26.5845 30.5114 26.6117 30.6478 26.6794L32.5062 27.6019L34.1594 24.9005L32.7012 23.7975C32.6194 23.7356 32.5515 23.6572 32.5017 23.5673C32.452 23.4774 32.4216 23.3781 32.4125 23.2757L32.2159 21.1113C32.2069 21.0114 32.2229 20.9108 32.2624 20.8186C32.3019 20.7264 32.3637 20.6456 32.4423 20.5835L34.5087 18.9489L35.3381 20.0049L33.8196 21.2062C33.7478 21.263 33.6911 21.3368 33.6546 21.421C33.6181 21.5052 33.6031 21.5972 33.6107 21.6887L33.6898 22.6363C33.6963 22.7144 33.7193 22.7903 33.7571 22.8589C33.795 22.9275 33.8469 22.9873 33.9094 23.0343L35.2036 24.0077Z" fill="white"/>
</g>
<defs>
<filter id="filter0_d_1_112" x="7" y="7" width="38" height="38" filterUnits="userSpaceOnUse" color-interpolation-filters="sRGB">
<feFlood flood-opacity="0" result="BackgroundImageFix"/>
<feColorMatrix in="SourceAlpha" type="matrix" values="0 0 0 0 0 0 0 0 0 0 0 0 0 0 0 0 0 0 127 0" result="hardAlpha"/>
<feOffset dy="4"/>
<feGaussianBlur stdDeviation="2"/>
<feComposite in2="hardAlpha" operator="out"/>
<feColorMatrix type="matrix" values="0 0 0 0 0 0 0 0 0 0 0 0 0 0 0 0 0 0 0.25 0"/>
<feBlend mode="normal" in2="BackgroundImageFix" result="effect1_dropShadow_1_112"/>
<feBlend mode="normal" in="SourceGraphic" in2="effect1_dropShadow_1_112" result="shape"/>
</filter>
<filter id="filter1_dd_1_112" x="0" y="0" width="52" height="52" filterUnits="userSpaceOnUse" color-interpolation-filters="sRGB">
<feFlood flood-opacity="0" result="BackgroundImageFix"/>
<feColorMatrix in="SourceAlpha" type="matrix" values="0 0 0 0 0 0 0 0 0 0 0 0 0 0 0 0 0 0 127 0" result="hardAlpha"/>
<feOffset dy="5"/>
<feGaussianBlur stdDeviation="4"/>
<feColorMatrix type="matrix" values="0 0 0 0 0 0 0 0 0 0 0 0 0 0 0 0 0 0 0.078125 0"/>
<feBlend mode="normal" in2="BackgroundImageFix" result="effect1_dropShadow_1_112"/>
<feColorMatrix in="SourceAlpha" type="matrix" values="0 0 0 0 0 0 0 0 0 0 0 0 0 0 0 0 0 0 127 0" result="hardAlpha"/>
<feOffset dy="4"/>
<feGaussianBlur stdDeviation="5.5"/>
<feColorMatrix type="matrix" values="0 0 0 0 0 0 0 0 0 0 0 0 0 0 0 0 0 0 0.210824 0"/>
<feBlend mode="normal" in2="effect1_dropShadow_1_112" result="effect2_dropShadow_1_112"/>
<feBlend mode="normal" in="SourceGraphic" in2="effect2_dropShadow_1_112" result="shape"/>
</filter>
</defs>
</svg>
